<?xml version="1.0" encoding="UTF-8" standalone="no"?>
<!DOCTYPE svg PUBLIC "-//W3C//DTD SVG 1.1//EN"
 "http://www.w3.org/Graphics/SVG/1.1/DTD/svg11.dtd">
<!-- Generated by graphviz version 2.40.1 (20161225.0304)
 -->
<!-- Title: dependencies Pages: 1 -->
<svg width="1098pt" height="323pt"
 viewBox="0.00 0.00 1098.00 322.59" xmlns="http://www.w3.org/2000/svg" xmlns:xlink="http://www.w3.org/1999/xlink">
<g id="graph0" class="graph" transform="scale(1 1) rotate(0) translate(4 318.5901)">
<title>dependencies</title>
<polygon fill="#ffffff" stroke="transparent" points="-4,4 -4,-318.5901 1094,-318.5901 1094,4 -4,4"/>
<text text-anchor="start" x="524.0091" y="-42.4" font-family="sans-serif" font-weight="bold" font-size="14.00" fill="#000000">Legend</text>
<polygon fill="#ffffb3" stroke="transparent" points="311,-10 311,-30 331,-30 331,-10 311,-10"/>
<text text-anchor="start" x="334.629" y="-15.4" font-family="sans-serif" font-size="14.00" fill="#000000"> &#160;Declarations</text>
<polygon fill="#8dd3c7" stroke="transparent" points="424,-10 424,-30 444,-30 444,-10 424,-10"/>
<text text-anchor="start" x="447.7251" y="-15.4" font-family="sans-serif" font-size="14.00" fill="#000000"> &#160;Module</text>
<polygon fill="#80b1d3" stroke="transparent" points="510,-10 510,-30 530,-30 530,-10 510,-10"/>
<text text-anchor="start" x="533.7812" y="-15.4" font-family="sans-serif" font-size="14.00" fill="#000000"> &#160;Bootstrap</text>
<polygon fill="#fdb462" stroke="transparent" points="607,-10 607,-30 627,-30 627,-10 607,-10"/>
<text text-anchor="start" x="630.6732" y="-15.4" font-family="sans-serif" font-size="14.00" fill="#000000"> &#160;Providers</text>
<polygon fill="#fb8072" stroke="transparent" points="703,-10 703,-30 723,-30 723,-10 703,-10"/>
<text text-anchor="start" x="726.7258" y="-15.4" font-family="sans-serif" font-size="14.00" fill="#000000"> &#160;Exports</text>
<g id="clust1" class="cluster">
<title>cluster_MetadataModule</title>
<polygon fill="none" stroke="#000000" stroke-dasharray="1,5" points="8,-70 8,-306.5901 1082,-306.5901 1082,-70 8,-70"/>
</g>
<g id="clust2" class="cluster">
<title>cluster_MetadataModule_declarations</title>
<polygon fill="none" stroke="#000000" points="178,-189.5901 178,-241.5901 1074,-241.5901 1074,-189.5901 178,-189.5901"/>
</g>
<g id="clust8" class="cluster">
<title>cluster_MetadataModule_MetadataComponent_providers</title>
<polygon fill="none" stroke="#000000" points="16,-78 16,-176.5901 520,-176.5901 520,-78 16,-78"/>
</g>
<g id="clust9" class="cluster">
<title>cluster_MetadataModule_imports</title>
<polygon fill="none" stroke="#000000" points="16,-189.5901 16,-241.5901 170,-241.5901 170,-189.5901 16,-189.5901"/>
</g>
<!-- ActorComponent -->
<g id="node1" class="node">
<title>ActorComponent</title>
<polygon fill="#ffffb3" stroke="#000000" points="1065.705,-233.5901 952.295,-233.5901 952.295,-197.5901 1065.705,-197.5901 1065.705,-233.5901"/>
<text text-anchor="middle" x="1009" y="-211.3901" font-family="Times,serif" font-size="14.00" fill="#000000">ActorComponent</text>
</g>
<!-- MetadataModule -->
<g id="node7" class="node">
<title>MetadataModule</title>
<polygon fill="#8dd3c7" stroke="#000000" points="632.6346,-298.5901 629.6346,-302.5901 608.6346,-302.5901 605.6346,-298.5901 521.3654,-298.5901 521.3654,-262.5901 632.6346,-262.5901 632.6346,-298.5901"/>
<text text-anchor="middle" x="577" y="-276.3901" font-family="Times,serif" font-size="14.00" fill="#000000">MetadataModule</text>
</g>
<!-- ActorComponent&#45;&gt;MetadataModule -->
<g id="edge1" class="edge">
<title>ActorComponent&#45;&gt;MetadataModule</title>
<path fill="none" stroke="#000000" d="M1009,-233.8822C1009,-255.7957 1009,-289.5901 1009,-289.5901 1009,-289.5901 643.0336,-289.5901 643.0336,-289.5901"/>
<polygon fill="#000000" stroke="#000000" points="643.0336,-286.0902 633.0336,-289.5901 643.0335,-293.0902 643.0336,-286.0902"/>
</g>
<!-- AfFormComponent -->
<g id="node2" class="node">
<title>AfFormComponent</title>
<polygon fill="#ffffb3" stroke="#000000" points="934.4341,-233.5901 807.5659,-233.5901 807.5659,-197.5901 934.4341,-197.5901 934.4341,-233.5901"/>
<text text-anchor="middle" x="871" y="-211.3901" font-family="Times,serif" font-size="14.00" fill="#000000">AfFormComponent</text>
</g>
<!-- AfFormComponent&#45;&gt;MetadataModule -->
<g id="edge2" class="edge">
<title>AfFormComponent&#45;&gt;MetadataModule</title>
<path fill="none" stroke="#000000" d="M871,-233.6962C871,-252.9292 871,-280.5901 871,-280.5901 871,-280.5901 642.6448,-280.5901 642.6448,-280.5901"/>
<polygon fill="#000000" stroke="#000000" points="642.6448,-277.0902 632.6448,-280.5901 642.6448,-284.0902 642.6448,-277.0902"/>
</g>
<!-- AfListComponent -->
<g id="node3" class="node">
<title>AfListComponent</title>
<polygon fill="#ffffb3" stroke="#000000" points="789.8781,-233.5901 672.1219,-233.5901 672.1219,-197.5901 789.8781,-197.5901 789.8781,-233.5901"/>
<text text-anchor="middle" x="731" y="-211.3901" font-family="Times,serif" font-size="14.00" fill="#000000">AfListComponent</text>
</g>
<!-- AfListComponent&#45;&gt;MetadataModule -->
<g id="edge3" class="edge">
<title>AfListComponent&#45;&gt;MetadataModule</title>
<path fill="none" stroke="#000000" d="M731,-233.6171C731,-249.9877 731,-271.5901 731,-271.5901 731,-271.5901 643.0332,-271.5901 643.0332,-271.5901"/>
<polygon fill="#000000" stroke="#000000" points="643.0332,-268.0902 633.0332,-271.5901 643.0331,-275.0902 643.0332,-268.0902"/>
</g>
<!-- DatasetFormComponent -->
<g id="node4" class="node">
<title>DatasetFormComponent</title>
<polygon fill="#ffffb3" stroke="#000000" points="653.6428,-233.5901 500.3572,-233.5901 500.3572,-197.5901 653.6428,-197.5901 653.6428,-233.5901"/>
<text text-anchor="middle" x="577" y="-211.3901" font-family="Times,serif" font-size="14.00" fill="#000000">DatasetFormComponent</text>
</g>
<!-- DatasetFormComponent&#45;&gt;MetadataModule -->
<g id="edge4" class="edge">
<title>DatasetFormComponent&#45;&gt;MetadataModule</title>
<path fill="none" stroke="#000000" d="M577,-233.6962C577,-233.6962 577,-252.581 577,-252.581"/>
<polygon fill="#000000" stroke="#000000" points="573.5001,-252.581 577,-262.581 580.5001,-252.5811 573.5001,-252.581"/>
</g>
<!-- DatasetListComponent -->
<g id="node5" class="node">
<title>DatasetListComponent</title>
<polygon fill="#ffffb3" stroke="#000000" points="482.587,-233.5901 337.413,-233.5901 337.413,-197.5901 482.587,-197.5901 482.587,-233.5901"/>
<text text-anchor="middle" x="410" y="-211.3901" font-family="Times,serif" font-size="14.00" fill="#000000">DatasetListComponent</text>
</g>
<!-- DatasetListComponent&#45;&gt;MetadataModule -->
<g id="edge5" class="edge">
<title>DatasetListComponent&#45;&gt;MetadataModule</title>
<path fill="none" stroke="#000000" d="M410,-233.6171C410,-249.9877 410,-271.5901 410,-271.5901 410,-271.5901 510.9268,-271.5901 510.9268,-271.5901"/>
<polygon fill="#000000" stroke="#000000" points="510.9269,-275.0902 520.9268,-271.5901 510.9268,-268.0902 510.9269,-275.0902"/>
</g>
<!-- MetadataComponent -->
<g id="node6" class="node">
<title>MetadataComponent</title>
<polygon fill="#ffffb3" stroke="#000000" points="319.9173,-233.5901 186.0827,-233.5901 186.0827,-197.5901 319.9173,-197.5901 319.9173,-233.5901"/>
<text text-anchor="middle" x="253" y="-211.3901" font-family="Times,serif" font-size="14.00" fill="#000000">MetadataComponent</text>
</g>
<!-- MetadataComponent&#45;&gt;MetadataModule -->
<g id="edge6" class="edge">
<title>MetadataComponent&#45;&gt;MetadataModule</title>
<path fill="none" stroke="#000000" d="M253,-233.6962C253,-252.9292 253,-280.5901 253,-280.5901 253,-280.5901 511.3024,-280.5901 511.3024,-280.5901"/>
<polygon fill="#000000" stroke="#000000" points="511.3024,-284.0902 521.3024,-280.5901 511.3024,-277.0902 511.3024,-284.0902"/>
</g>
<!-- {
 &#160;&#160;&#160;provide: MatPaginatorIntl, useClass: MetadataPaginator
} -->
<g id="node8" class="node">
<title>{
 &#160;&#160;&#160;provide: MatPaginatorIntl, useClass: MetadataPaginator
}</title>
<ellipse fill="#fdb462" stroke="#000000" cx="268" cy="-127.295" rx="243.7909" ry="41.0911"/>
<text text-anchor="middle" x="268" y="-139.895" font-family="Times,serif" font-size="14.00" fill="#000000">{</text>
<text text-anchor="middle" x="268" y="-123.095" font-family="Times,serif" font-size="14.00" fill="#000000"> &#160;&#160;&#160;provide: MatPaginatorIntl, useClass: MetadataPaginator</text>
<text text-anchor="middle" x="268" y="-106.295" font-family="Times,serif" font-size="14.00" fill="#000000">}</text>
</g>
<!-- {
 &#160;&#160;&#160;provide: MatPaginatorIntl, useClass: MetadataPaginator
}&#45;&gt;MetadataComponent -->
<g id="edge7" class="edge">
<title>{
 &#160;&#160;&#160;provide: MatPaginatorIntl, useClass: MetadataPaginator
}&#45;&gt;MetadataComponent</title>
<path fill="none" stroke="#000000" d="M253,-168.5989C253,-168.5989 253,-187.2551 253,-187.2551"/>
<polygon fill="#000000" stroke="#000000" points="249.5001,-187.255 253,-197.2551 256.5001,-187.2551 249.5001,-187.255"/>
</g>
<!-- GN2CommonModule -->
<g id="node9" class="node">
<title>GN2CommonModule</title>
<polygon fill="#8dd3c7" stroke="#000000" points="162.3809,-233.5901 159.3809,-237.5901 138.3809,-237.5901 135.3809,-233.5901 23.6191,-233.5901 23.6191,-197.5901 162.3809,-197.5901 162.3809,-233.5901"/>
<text text-anchor="middle" x="93" y="-211.3901" font-family="Times,serif" font-size="14.00" fill="#000000">GN2CommonModule</text>
</g>
<!-- GN2CommonModule&#45;&gt;MetadataModule -->
<g id="edge8" class="edge">
<title>GN2CommonModule&#45;&gt;MetadataModule</title>
<path fill="none" stroke="#000000" d="M93,-233.8822C93,-255.7957 93,-289.5901 93,-289.5901 93,-289.5901 511.0062,-289.5901 511.0062,-289.5901"/>
<polygon fill="#000000" stroke="#000000" points="511.0063,-293.0902 521.0062,-289.5901 511.0062,-286.0902 511.0063,-293.0902"/>
</g>
</g>
</svg>
