<?xml version="1.0" encoding="UTF-8" standalone="no"?>
<!DOCTYPE svg PUBLIC "-//W3C//DTD SVG 1.1//EN"
 "http://www.w3.org/Graphics/SVG/1.1/DTD/svg11.dtd">
<!-- Generated by graphviz version 2.40.1 (20161225.0304)
 -->
<!-- Title: dependencies Pages: 1 -->
<svg width="2712pt" height="276pt"
 viewBox="0.00 0.00 2712.00 276.00" xmlns="http://www.w3.org/2000/svg" xmlns:xlink="http://www.w3.org/1999/xlink">
<g id="graph0" class="graph" transform="scale(1 1) rotate(0) translate(4 272)">
<title>dependencies</title>
<polygon fill="#ffffff" stroke="transparent" points="-4,4 -4,-272 2708,-272 2708,4 -4,4"/>
<text text-anchor="start" x="1331.0091" y="-42.4" font-family="sans-serif" font-weight="bold" font-size="14.00" fill="#000000">Legend</text>
<polygon fill="#ffffb3" stroke="transparent" points="1118,-10 1118,-30 1138,-30 1138,-10 1118,-10"/>
<text text-anchor="start" x="1141.629" y="-15.4" font-family="sans-serif" font-size="14.00" fill="#000000"> &#160;Declarations</text>
<polygon fill="#8dd3c7" stroke="transparent" points="1231,-10 1231,-30 1251,-30 1251,-10 1231,-10"/>
<text text-anchor="start" x="1254.7251" y="-15.4" font-family="sans-serif" font-size="14.00" fill="#000000"> &#160;Module</text>
<polygon fill="#80b1d3" stroke="transparent" points="1317,-10 1317,-30 1337,-30 1337,-10 1317,-10"/>
<text text-anchor="start" x="1340.7812" y="-15.4" font-family="sans-serif" font-size="14.00" fill="#000000"> &#160;Bootstrap</text>
<polygon fill="#fdb462" stroke="transparent" points="1414,-10 1414,-30 1434,-30 1434,-10 1414,-10"/>
<text text-anchor="start" x="1437.6732" y="-15.4" font-family="sans-serif" font-size="14.00" fill="#000000"> &#160;Providers</text>
<polygon fill="#fb8072" stroke="transparent" points="1510,-10 1510,-30 1530,-30 1530,-10 1510,-10"/>
<text text-anchor="start" x="1533.7258" y="-15.4" font-family="sans-serif" font-size="14.00" fill="#000000"> &#160;Exports</text>
<g id="clust1" class="cluster">
<title>cluster_SyntheseModule</title>
<polygon fill="none" stroke="#000000" stroke-dasharray="1,5" points="8,-70 8,-260 2696,-260 2696,-70 8,-70"/>
</g>
<g id="clust2" class="cluster">
<title>cluster_SyntheseModule_declarations</title>
<polygon fill="none" stroke="#000000" points="1346,-143 1346,-195 2688,-195 2688,-143 1346,-143"/>
</g>
<g id="clust5" class="cluster">
<title>cluster_SyntheseModule_SyntheseComponent_providers</title>
<polygon fill="none" stroke="#000000" points="2171,-78 2171,-130 2333,-130 2333,-78 2171,-78"/>
</g>
<g id="clust10" class="cluster">
<title>cluster_SyntheseModule_imports</title>
<polygon fill="none" stroke="#000000" points="1184,-143 1184,-195 1338,-195 1338,-143 1184,-143"/>
</g>
<g id="clust13" class="cluster">
<title>cluster_SyntheseModule_providers</title>
<polygon fill="none" stroke="#000000" points="16,-143 16,-195 1176,-195 1176,-143 16,-143"/>
</g>
<!-- ModalInfoObsComponent -->
<g id="node1" class="node">
<title>ModalInfoObsComponent</title>
<polygon fill="#ffffb3" stroke="#000000" points="2679.7548,-187 2516.2452,-187 2516.2452,-151 2679.7548,-151 2679.7548,-187"/>
<text text-anchor="middle" x="2598" y="-164.8" font-family="Times,serif" font-size="14.00" fill="#000000">ModalInfoObsComponent</text>
</g>
<!-- SyntheseModule -->
<g id="node8" class="node">
<title>SyntheseModule</title>
<polygon fill="#8dd3c7" stroke="#000000" points="1415.0968,-252 1412.0968,-256 1391.0968,-256 1388.0968,-252 1304.9032,-252 1304.9032,-216 1415.0968,-216 1415.0968,-252"/>
<text text-anchor="middle" x="1360" y="-229.8" font-family="Times,serif" font-size="14.00" fill="#000000">SyntheseModule</text>
</g>
<!-- ModalInfoObsComponent&#45;&gt;SyntheseModule -->
<g id="edge1" class="edge">
<title>ModalInfoObsComponent&#45;&gt;SyntheseModule</title>
<path fill="none" stroke="#000000" d="M2598,-187.0908C2598,-210.1328 2598,-247 2598,-247 2598,-247 1425.1954,-247 1425.1954,-247"/>
<polygon fill="#000000" stroke="#000000" points="1425.1954,-243.5001 1415.1954,-247 1425.1953,-250.5001 1425.1954,-243.5001"/>
</g>
<!-- SyntheseCarteComponent -->
<g id="node2" class="node">
<title>SyntheseCarteComponent</title>
<polygon fill="#ffffb3" stroke="#000000" points="2498.1965,-187 2335.8035,-187 2335.8035,-151 2498.1965,-151 2498.1965,-187"/>
<text text-anchor="middle" x="2417" y="-164.8" font-family="Times,serif" font-size="14.00" fill="#000000">SyntheseCarteComponent</text>
</g>
<!-- SyntheseCarteComponent&#45;&gt;SyntheseModule -->
<g id="edge2" class="edge">
<title>SyntheseCarteComponent&#45;&gt;SyntheseModule</title>
<path fill="none" stroke="#000000" d="M2417,-187.0449C2417,-208.6623 2417,-242 2417,-242 2417,-242 1425.3407,-242 1425.3407,-242"/>
<polygon fill="#000000" stroke="#000000" points="1425.3407,-238.5001 1415.3407,-242 1425.3407,-245.5001 1425.3407,-238.5001"/>
</g>
<!-- SyntheseComponent -->
<g id="node3" class="node">
<title>SyntheseComponent</title>
<polygon fill="#ffffb3" stroke="#000000" points="2317.8795,-187 2186.1205,-187 2186.1205,-151 2317.8795,-151 2317.8795,-187"/>
<text text-anchor="middle" x="2252" y="-164.8" font-family="Times,serif" font-size="14.00" fill="#000000">SyntheseComponent</text>
</g>
<!-- SyntheseComponent&#45;&gt;SyntheseModule -->
<g id="edge3" class="edge">
<title>SyntheseComponent&#45;&gt;SyntheseModule</title>
<path fill="none" stroke="#000000" d="M2252,-187.2228C2252,-207.3652 2252,-237 2252,-237 2252,-237 1425.1254,-237 1425.1254,-237"/>
<polygon fill="#000000" stroke="#000000" points="1425.1255,-233.5001 1415.1254,-237 1425.1254,-240.5001 1425.1255,-233.5001"/>
</g>
<!-- SyntheseListComponent -->
<g id="node4" class="node">
<title>SyntheseListComponent</title>
<polygon fill="#ffffb3" stroke="#000000" points="2167.6582,-187 2014.3418,-187 2014.3418,-151 2167.6582,-151 2167.6582,-187"/>
<text text-anchor="middle" x="2091" y="-164.8" font-family="Times,serif" font-size="14.00" fill="#000000">SyntheseListComponent</text>
</g>
<!-- SyntheseListComponent&#45;&gt;SyntheseModule -->
<g id="edge5" class="edge">
<title>SyntheseListComponent&#45;&gt;SyntheseModule</title>
<path fill="none" stroke="#000000" d="M2091,-187.2222C2091,-205.8285 2091,-232 2091,-232 2091,-232 1425.2435,-232 1425.2435,-232"/>
<polygon fill="#000000" stroke="#000000" points="1425.2435,-228.5001 1415.2435,-232 1425.2434,-235.5001 1425.2435,-228.5001"/>
</g>
<!-- SyntheseModalDownloadComponent -->
<g id="node5" class="node">
<title>SyntheseModalDownloadComponent</title>
<polygon fill="#ffffb3" stroke="#000000" points="1996.2477,-187 1769.7523,-187 1769.7523,-151 1996.2477,-151 1996.2477,-187"/>
<text text-anchor="middle" x="1883" y="-164.8" font-family="Times,serif" font-size="14.00" fill="#000000">SyntheseModalDownloadComponent</text>
</g>
<!-- SyntheseModalDownloadComponent&#45;&gt;SyntheseModule -->
<g id="edge6" class="edge">
<title>SyntheseModalDownloadComponent&#45;&gt;SyntheseModule</title>
<path fill="none" stroke="#000000" d="M1883,-187.0336C1883,-204.0597 1883,-227 1883,-227 1883,-227 1425.475,-227 1425.475,-227"/>
<polygon fill="#000000" stroke="#000000" points="1425.4751,-223.5001 1415.475,-227 1425.475,-230.5001 1425.4751,-223.5001"/>
</g>
<!-- SyntheseSearchComponent -->
<g id="node6" class="node">
<title>SyntheseSearchComponent</title>
<polygon fill="#ffffb3" stroke="#000000" points="1751.9664,-187 1582.0336,-187 1582.0336,-151 1751.9664,-151 1751.9664,-187"/>
<text text-anchor="middle" x="1667" y="-164.8" font-family="Times,serif" font-size="14.00" fill="#000000">SyntheseSearchComponent</text>
</g>
<!-- SyntheseSearchComponent&#45;&gt;SyntheseModule -->
<g id="edge7" class="edge">
<title>SyntheseSearchComponent&#45;&gt;SyntheseModule</title>
<path fill="none" stroke="#000000" d="M1667,-187.2396C1667,-202.5706 1667,-222 1667,-222 1667,-222 1425.24,-222 1425.24,-222"/>
<polygon fill="#000000" stroke="#000000" points="1425.24,-218.5001 1415.24,-222 1425.24,-225.5001 1425.24,-218.5001"/>
</g>
<!-- TaxonAdvancedModalComponent -->
<g id="node7" class="node">
<title>TaxonAdvancedModalComponent</title>
<polygon fill="#ffffb3" stroke="#000000" points="1564.4002,-187 1353.5998,-187 1353.5998,-151 1564.4002,-151 1564.4002,-187"/>
<text text-anchor="middle" x="1459" y="-164.8" font-family="Times,serif" font-size="14.00" fill="#000000">TaxonAdvancedModalComponent</text>
</g>
<!-- TaxonAdvancedModalComponent&#45;&gt;SyntheseModule -->
<g id="edge8" class="edge">
<title>TaxonAdvancedModalComponent&#45;&gt;SyntheseModule</title>
<path fill="none" stroke="#000000" d="M1384.4243,-187.1061C1384.4243,-187.1061 1384.4243,-205.991 1384.4243,-205.991"/>
<polygon fill="#000000" stroke="#000000" points="1380.9243,-205.9909 1384.4243,-215.991 1387.9243,-205.991 1380.9243,-205.9909"/>
</g>
<!-- MapListService -->
<g id="node9" class="node">
<title>MapListService</title>
<ellipse fill="#fdb462" stroke="#000000" cx="2252" cy="-104" rx="72.9276" ry="18"/>
<text text-anchor="middle" x="2252" y="-99.8" font-family="Times,serif" font-size="14.00" fill="#000000">MapListService</text>
</g>
<!-- MapListService&#45;&gt;SyntheseComponent -->
<g id="edge4" class="edge">
<title>MapListService&#45;&gt;SyntheseComponent</title>
<path fill="none" stroke="#000000" d="M2252,-122.1061C2252,-122.1061 2252,-140.991 2252,-140.991"/>
<polygon fill="#000000" stroke="#000000" points="2248.5001,-140.9909 2252,-150.991 2255.5001,-140.991 2248.5001,-140.9909"/>
</g>
<!-- GN2CommonModule -->
<g id="node10" class="node">
<title>GN2CommonModule</title>
<polygon fill="#8dd3c7" stroke="#000000" points="1330.3809,-187 1327.3809,-191 1306.3809,-191 1303.3809,-187 1191.6191,-187 1191.6191,-151 1330.3809,-151 1330.3809,-187"/>
<text text-anchor="middle" x="1261" y="-164.8" font-family="Times,serif" font-size="14.00" fill="#000000">GN2CommonModule</text>
</g>
<!-- GN2CommonModule&#45;&gt;SyntheseModule -->
<g id="edge9" class="edge">
<title>GN2CommonModule&#45;&gt;SyntheseModule</title>
<path fill="none" stroke="#000000" d="M1317.696,-187.1061C1317.696,-187.1061 1317.696,-205.991 1317.696,-205.991"/>
<polygon fill="#000000" stroke="#000000" points="1314.1961,-205.9909 1317.696,-215.991 1321.1961,-205.991 1314.1961,-205.9909"/>
</g>
<!-- DataService -->
<g id="node11" class="node">
<title>DataService</title>
<ellipse fill="#fdb462" stroke="#000000" cx="1110" cy="-169" rx="58.4415" ry="18"/>
<text text-anchor="middle" x="1110" y="-164.8" font-family="Times,serif" font-size="14.00" fill="#000000">DataService</text>
</g>
<!-- DataService&#45;&gt;SyntheseModule -->
<g id="edge10" class="edge">
<title>DataService&#45;&gt;SyntheseModule</title>
<path fill="none" stroke="#000000" d="M1110,-187.2396C1110,-202.5706 1110,-222 1110,-222 1110,-222 1294.8269,-222 1294.8269,-222"/>
<polygon fill="#000000" stroke="#000000" points="1294.827,-225.5001 1304.8269,-222 1294.8269,-218.5001 1294.827,-225.5001"/>
</g>
<!-- DynamicFormService -->
<g id="node12" class="node">
<title>DynamicFormService</title>
<ellipse fill="#fdb462" stroke="#000000" cx="937" cy="-169" rx="96.1266" ry="18"/>
<text text-anchor="middle" x="937" y="-164.8" font-family="Times,serif" font-size="14.00" fill="#000000">DynamicFormService</text>
</g>
<!-- DynamicFormService&#45;&gt;SyntheseModule -->
<g id="edge11" class="edge">
<title>DynamicFormService&#45;&gt;SyntheseModule</title>
<path fill="none" stroke="#000000" d="M937,-187.0336C937,-204.0597 937,-227 937,-227 937,-227 1294.7001,-227 1294.7001,-227"/>
<polygon fill="#000000" stroke="#000000" points="1294.7002,-230.5001 1304.7001,-227 1294.7001,-223.5001 1294.7002,-230.5001"/>
</g>
<!-- MapService -->
<g id="node13" class="node">
<title>MapService</title>
<ellipse fill="#fdb462" stroke="#000000" cx="765" cy="-169" rx="57.8829" ry="18"/>
<text text-anchor="middle" x="765" y="-164.8" font-family="Times,serif" font-size="14.00" fill="#000000">MapService</text>
</g>
<!-- MapService&#45;&gt;SyntheseModule -->
<g id="edge12" class="edge">
<title>MapService&#45;&gt;SyntheseModule</title>
<path fill="none" stroke="#000000" d="M765,-187.2222C765,-205.8285 765,-232 765,-232 765,-232 1294.8245,-232 1294.8245,-232"/>
<polygon fill="#000000" stroke="#000000" points="1294.8245,-235.5001 1304.8245,-232 1294.8245,-228.5001 1294.8245,-235.5001"/>
</g>
<!-- SyntheseFormService -->
<g id="node14" class="node">
<title>SyntheseFormService</title>
<ellipse fill="#fdb462" stroke="#000000" cx="594" cy="-169" rx="95.5645" ry="18"/>
<text text-anchor="middle" x="594" y="-164.8" font-family="Times,serif" font-size="14.00" fill="#000000">SyntheseFormService</text>
</g>
<!-- SyntheseFormService&#45;&gt;SyntheseModule -->
<g id="edge13" class="edge">
<title>SyntheseFormService&#45;&gt;SyntheseModule</title>
<path fill="none" stroke="#000000" d="M594,-187.2228C594,-207.3652 594,-237 594,-237 594,-237 1294.9112,-237 1294.9112,-237"/>
<polygon fill="#000000" stroke="#000000" points="1294.9112,-240.5001 1304.9112,-237 1294.9111,-233.5001 1294.9112,-240.5001"/>
</g>
<!-- SyntheseStoreService -->
<g id="node15" class="node">
<title>SyntheseStoreService</title>
<ellipse fill="#fdb462" stroke="#000000" cx="385" cy="-169" rx="95.4811" ry="18"/>
<text text-anchor="middle" x="385" y="-164.8" font-family="Times,serif" font-size="14.00" fill="#000000">SyntheseStoreService</text>
</g>
<!-- SyntheseStoreService&#45;&gt;SyntheseModule -->
<g id="edge14" class="edge">
<title>SyntheseStoreService&#45;&gt;SyntheseModule</title>
<path fill="none" stroke="#000000" d="M385,-187.0449C385,-208.6623 385,-242 385,-242 385,-242 1294.7862,-242 1294.7862,-242"/>
<polygon fill="#000000" stroke="#000000" points="1294.7862,-245.5001 1304.7862,-242 1294.7862,-238.5001 1294.7862,-245.5001"/>
</g>
<!-- TaxonAdvancedStoreService -->
<g id="node16" class="node">
<title>TaxonAdvancedStoreService</title>
<ellipse fill="#fdb462" stroke="#000000" cx="148" cy="-169" rx="124.3819" ry="18"/>
<text text-anchor="middle" x="148" y="-164.8" font-family="Times,serif" font-size="14.00" fill="#000000">TaxonAdvancedStoreService</text>
</g>
<!-- TaxonAdvancedStoreService&#45;&gt;SyntheseModule -->
<g id="edge15" class="edge">
<title>TaxonAdvancedStoreService&#45;&gt;SyntheseModule</title>
<path fill="none" stroke="#000000" d="M148,-187.0908C148,-210.1328 148,-247 148,-247 148,-247 1294.7735,-247 1294.7735,-247"/>
<polygon fill="#000000" stroke="#000000" points="1294.7735,-250.5001 1304.7735,-247 1294.7734,-243.5001 1294.7735,-250.5001"/>
</g>
</g>
</svg>
