<?xml version="1.0" encoding="UTF-8" standalone="no"?>
<!DOCTYPE svg PUBLIC "-//W3C//DTD SVG 1.1//EN"
 "http://www.w3.org/Graphics/SVG/1.1/DTD/svg11.dtd">
<!-- Generated by graphviz version 2.40.1 (20161225.0304)
 -->
<!-- Title: dependencies Pages: 1 -->
<svg width="2507pt" height="284pt"
 viewBox="0.00 0.00 2507.00 284.00" xmlns="http://www.w3.org/2000/svg" xmlns:xlink="http://www.w3.org/1999/xlink">
<g id="graph0" class="graph" transform="scale(1 1) rotate(0) translate(4 280)">
<title>dependencies</title>
<polygon fill="#ffffff" stroke="transparent" points="-4,4 -4,-280 2503,-280 2503,4 -4,4"/>
<text text-anchor="start" x="1228.5091" y="-42.4" font-family="sans-serif" font-weight="bold" font-size="14.00" fill="#000000">Legend</text>
<polygon fill="#ffffb3" stroke="transparent" points="1015.5,-10 1015.5,-30 1035.5,-30 1035.5,-10 1015.5,-10"/>
<text text-anchor="start" x="1039.129" y="-15.4" font-family="sans-serif" font-size="14.00" fill="#000000"> &#160;Declarations</text>
<polygon fill="#8dd3c7" stroke="transparent" points="1128.5,-10 1128.5,-30 1148.5,-30 1148.5,-10 1128.5,-10"/>
<text text-anchor="start" x="1152.2251" y="-15.4" font-family="sans-serif" font-size="14.00" fill="#000000"> &#160;Module</text>
<polygon fill="#80b1d3" stroke="transparent" points="1214.5,-10 1214.5,-30 1234.5,-30 1234.5,-10 1214.5,-10"/>
<text text-anchor="start" x="1238.2812" y="-15.4" font-family="sans-serif" font-size="14.00" fill="#000000"> &#160;Bootstrap</text>
<polygon fill="#fdb462" stroke="transparent" points="1311.5,-10 1311.5,-30 1331.5,-30 1331.5,-10 1311.5,-10"/>
<text text-anchor="start" x="1335.1732" y="-15.4" font-family="sans-serif" font-size="14.00" fill="#000000"> &#160;Providers</text>
<polygon fill="#fb8072" stroke="transparent" points="1407.5,-10 1407.5,-30 1427.5,-30 1427.5,-10 1407.5,-10"/>
<text text-anchor="start" x="1431.2258" y="-15.4" font-family="sans-serif" font-size="14.00" fill="#000000"> &#160;Exports</text>
<g id="clust1" class="cluster">
<title>cluster_AppModule</title>
<polygon fill="none" stroke="#000000" stroke-dasharray="1,5" points="8,-70 8,-268 2491,-268 2491,-70 8,-70"/>
</g>
<g id="clust2" class="cluster">
<title>cluster_AppModule_declarations</title>
<polygon fill="none" stroke="#000000" points="1230,-78 1230,-130 2483,-130 2483,-78 1230,-78"/>
</g>
<g id="clust11" class="cluster">
<title>cluster_AppModule_imports</title>
<polygon fill="none" stroke="#000000" points="1068,-78 1068,-130 1222,-130 1222,-78 1068,-78"/>
</g>
<g id="clust13" class="cluster">
<title>cluster_AppModule_bootstrap</title>
<polygon fill="none" stroke="#000000" points="1255,-208 1255,-260 1379,-260 1379,-208 1255,-208"/>
</g>
<g id="clust14" class="cluster">
<title>cluster_AppModule_providers</title>
<polygon fill="none" stroke="#000000" points="16,-78 16,-130 1060,-130 1060,-78 16,-78"/>
</g>
<!-- AppComponent -->
<g id="node1" class="node">
<title>AppComponent</title>
<polygon fill="#ffffb3" stroke="#000000" points="2474.9399,-122 2369.0601,-122 2369.0601,-86 2474.9399,-86 2474.9399,-122"/>
<text text-anchor="middle" x="2422" y="-99.8" font-family="Times,serif" font-size="14.00" fill="#000000">AppComponent</text>
</g>
<!-- AppModule -->
<g id="node9" class="node">
<title>AppModule</title>
<polygon fill="#8dd3c7" stroke="#000000" points="1358.6571,-187 1355.6571,-191 1334.6571,-191 1331.6571,-187 1275.3429,-187 1275.3429,-151 1358.6571,-151 1358.6571,-187"/>
<text text-anchor="middle" x="1317" y="-164.8" font-family="Times,serif" font-size="14.00" fill="#000000">AppModule</text>
</g>
<!-- AppComponent&#45;&gt;AppModule -->
<g id="edge1" class="edge">
<title>AppComponent&#45;&gt;AppModule</title>
<path fill="none" stroke="#000000" d="M2422,-122.3228C2422,-145.6602 2422,-183 2422,-183 2422,-183 1368.968,-183 1368.968,-183"/>
<polygon fill="#000000" stroke="#000000" points="1368.968,-179.5001 1358.968,-183 1368.968,-186.5001 1368.968,-179.5001"/>
</g>
<!-- FooterComponent -->
<g id="node2" class="node">
<title>FooterComponent</title>
<polygon fill="#ffffb3" stroke="#000000" points="2350.8809,-122 2233.1191,-122 2233.1191,-86 2350.8809,-86 2350.8809,-122"/>
<text text-anchor="middle" x="2292" y="-99.8" font-family="Times,serif" font-size="14.00" fill="#000000">FooterComponent</text>
</g>
<!-- FooterComponent&#45;&gt;AppModule -->
<g id="edge2" class="edge">
<title>FooterComponent&#45;&gt;AppModule</title>
<path fill="none" stroke="#000000" d="M2292,-122.2921C2292,-144.2057 2292,-178 2292,-178 2292,-178 1368.8945,-178 1368.8945,-178"/>
<polygon fill="#000000" stroke="#000000" points="1368.8946,-174.5001 1358.8945,-178 1368.8945,-181.5001 1368.8946,-174.5001"/>
</g>
<!-- HomeContentComponent -->
<g id="node3" class="node">
<title>HomeContentComponent</title>
<polygon fill="#ffffb3" stroke="#000000" points="2214.8766,-122 2055.1234,-122 2055.1234,-86 2214.8766,-86 2214.8766,-122"/>
<text text-anchor="middle" x="2135" y="-99.8" font-family="Times,serif" font-size="14.00" fill="#000000">HomeContentComponent</text>
</g>
<!-- HomeContentComponent&#45;&gt;AppModule -->
<g id="edge3" class="edge">
<title>HomeContentComponent&#45;&gt;AppModule</title>
<path fill="none" stroke="#000000" d="M2135,-122.0267C2135,-142.7672 2135,-174 2135,-174 2135,-174 1368.6893,-174 1368.6893,-174"/>
<polygon fill="#000000" stroke="#000000" points="1368.6894,-170.5001 1358.6893,-174 1368.6893,-177.5001 1368.6894,-170.5001"/>
</g>
<!-- IntroductionComponent -->
<g id="node4" class="node">
<title>IntroductionComponent</title>
<polygon fill="#ffffb3" stroke="#000000" points="2037.0407,-122 1886.9593,-122 1886.9593,-86 2037.0407,-86 2037.0407,-122"/>
<text text-anchor="middle" x="1962" y="-99.8" font-family="Times,serif" font-size="14.00" fill="#000000">IntroductionComponent</text>
</g>
<!-- IntroductionComponent&#45;&gt;AppModule -->
<g id="edge4" class="edge">
<title>IntroductionComponent&#45;&gt;AppModule</title>
<path fill="none" stroke="#000000" d="M1962,-122.1061C1962,-141.3391 1962,-169 1962,-169 1962,-169 1368.8233,-169 1368.8233,-169"/>
<polygon fill="#000000" stroke="#000000" points="1368.8233,-165.5001 1358.8233,-169 1368.8232,-172.5001 1368.8233,-165.5001"/>
</g>
<!-- LoginComponent -->
<g id="node5" class="node">
<title>LoginComponent</title>
<polygon fill="#ffffb3" stroke="#000000" points="1868.2758,-122 1753.7242,-122 1753.7242,-86 1868.2758,-86 1868.2758,-122"/>
<text text-anchor="middle" x="1811" y="-99.8" font-family="Times,serif" font-size="14.00" fill="#000000">LoginComponent</text>
</g>
<!-- LoginComponent&#45;&gt;AppModule -->
<g id="edge5" class="edge">
<title>LoginComponent&#45;&gt;AppModule</title>
<path fill="none" stroke="#000000" d="M1811,-122.302C1811,-140.2699 1811,-165 1811,-165 1811,-165 1368.6924,-165 1368.6924,-165"/>
<polygon fill="#000000" stroke="#000000" points="1368.6924,-161.5001 1358.6924,-165 1368.6924,-168.5001 1368.6924,-161.5001"/>
</g>
<!-- NavHomeComponent -->
<g id="node6" class="node">
<title>NavHomeComponent</title>
<polygon fill="#ffffb3" stroke="#000000" points="1735.3655,-122 1596.6345,-122 1596.6345,-86 1735.3655,-86 1735.3655,-122"/>
<text text-anchor="middle" x="1666" y="-99.8" font-family="Times,serif" font-size="14.00" fill="#000000">NavHomeComponent</text>
</g>
<!-- NavHomeComponent&#45;&gt;AppModule -->
<g id="edge6" class="edge">
<title>NavHomeComponent&#45;&gt;AppModule</title>
<path fill="none" stroke="#000000" d="M1666,-122.027C1666,-138.3976 1666,-160 1666,-160 1666,-160 1368.7509,-160 1368.7509,-160"/>
<polygon fill="#000000" stroke="#000000" points="1368.7509,-156.5001 1358.7509,-160 1368.7509,-163.5001 1368.7509,-156.5001"/>
</g>
<!-- PageNotFoundComponent -->
<g id="node7" class="node">
<title>PageNotFoundComponent</title>
<polygon fill="#ffffb3" stroke="#000000" points="1578.8243,-122 1413.1757,-122 1413.1757,-86 1578.8243,-86 1578.8243,-122"/>
<text text-anchor="middle" x="1496" y="-99.8" font-family="Times,serif" font-size="14.00" fill="#000000">PageNotFoundComponent</text>
</g>
<!-- PageNotFoundComponent&#45;&gt;AppModule -->
<g id="edge7" class="edge">
<title>PageNotFoundComponent&#45;&gt;AppModule</title>
<path fill="none" stroke="#000000" d="M1496,-122.1871C1496,-137.1824 1496,-156 1496,-156 1496,-156 1368.9675,-156 1368.9675,-156"/>
<polygon fill="#000000" stroke="#000000" points="1368.9676,-152.5001 1358.9675,-156 1368.9675,-159.5001 1368.9676,-152.5001"/>
</g>
<!-- SidenavItemsComponent -->
<g id="node8" class="node">
<title>SidenavItemsComponent</title>
<polygon fill="#ffffb3" stroke="#000000" points="1395.5365,-122 1238.4635,-122 1238.4635,-86 1395.5365,-86 1395.5365,-122"/>
<text text-anchor="middle" x="1317" y="-99.8" font-family="Times,serif" font-size="14.00" fill="#000000">SidenavItemsComponent</text>
</g>
<!-- SidenavItemsComponent&#45;&gt;AppModule -->
<g id="edge8" class="edge">
<title>SidenavItemsComponent&#45;&gt;AppModule</title>
<path fill="none" stroke="#000000" d="M1317,-122.1061C1317,-122.1061 1317,-140.991 1317,-140.991"/>
<polygon fill="#000000" stroke="#000000" points="1313.5001,-140.9909 1317,-150.991 1320.5001,-140.991 1313.5001,-140.9909"/>
</g>
<!-- AppComponent  -->
<g id="node11" class="node">
<title>AppComponent </title>
<polygon fill="#80b1d3" stroke="#000000" points="1371.439,-252 1262.561,-252 1262.561,-216 1371.439,-216 1371.439,-252"/>
<text text-anchor="middle" x="1317" y="-229.8" font-family="Times,serif" font-size="14.00" fill="#000000">AppComponent </text>
</g>
<!-- AppModule&#45;&gt;AppComponent  -->
<g id="edge10" class="edge">
<title>AppModule&#45;&gt;AppComponent </title>
<path fill="none" stroke="#000000" stroke-dasharray="1,5" d="M1317,-187.1061C1317,-187.1061 1317,-205.991 1317,-205.991"/>
<polygon fill="#000000" stroke="#000000" points="1313.5001,-205.9909 1317,-215.991 1320.5001,-205.991 1313.5001,-205.9909"/>
</g>
<!-- GN2CommonModule -->
<g id="node10" class="node">
<title>GN2CommonModule</title>
<polygon fill="#8dd3c7" stroke="#000000" points="1214.3809,-122 1211.3809,-126 1190.3809,-126 1187.3809,-122 1075.6191,-122 1075.6191,-86 1214.3809,-86 1214.3809,-122"/>
<text text-anchor="middle" x="1145" y="-99.8" font-family="Times,serif" font-size="14.00" fill="#000000">GN2CommonModule</text>
</g>
<!-- GN2CommonModule&#45;&gt;AppModule -->
<g id="edge9" class="edge">
<title>GN2CommonModule&#45;&gt;AppModule</title>
<path fill="none" stroke="#000000" d="M1145,-122.1871C1145,-137.1824 1145,-156 1145,-156 1145,-156 1264.9241,-156 1264.9241,-156"/>
<polygon fill="#000000" stroke="#000000" points="1264.9241,-159.5001 1274.9241,-156 1264.924,-152.5001 1264.9241,-159.5001"/>
</g>
<!-- AuthService -->
<g id="node12" class="node">
<title>AuthService</title>
<ellipse fill="#fdb462" stroke="#000000" cx="993" cy="-104" rx="59.1083" ry="18"/>
<text text-anchor="middle" x="993" y="-99.8" font-family="Times,serif" font-size="14.00" fill="#000000">AuthService</text>
</g>
<!-- AuthService&#45;&gt;AppModule -->
<g id="edge11" class="edge">
<title>AuthService&#45;&gt;AppModule</title>
<path fill="none" stroke="#000000" d="M993,-122.027C993,-138.3976 993,-160 993,-160 993,-160 1265.306,-160 1265.306,-160"/>
<polygon fill="#000000" stroke="#000000" points="1265.306,-163.5001 1275.306,-160 1265.3059,-156.5001 1265.306,-163.5001"/>
</g>
<!-- CruvedStoreService -->
<g id="node13" class="node">
<title>CruvedStoreService</title>
<ellipse fill="#fdb462" stroke="#000000" cx="827" cy="-104" rx="88.6024" ry="18"/>
<text text-anchor="middle" x="827" y="-99.8" font-family="Times,serif" font-size="14.00" fill="#000000">CruvedStoreService</text>
</g>
<!-- CruvedStoreService&#45;&gt;AppModule -->
<g id="edge12" class="edge">
<title>CruvedStoreService&#45;&gt;AppModule</title>
<path fill="none" stroke="#000000" d="M827,-122.302C827,-140.2699 827,-165 827,-165 827,-165 1265.2229,-165 1265.2229,-165"/>
<polygon fill="#000000" stroke="#000000" points="1265.2229,-168.5001 1275.2229,-165 1265.2228,-161.5001 1265.2229,-168.5001"/>
</g>
<!-- GlobalSubService -->
<g id="node14" class="node">
<title>GlobalSubService</title>
<ellipse fill="#fdb462" stroke="#000000" cx="639" cy="-104" rx="81.0994" ry="18"/>
<text text-anchor="middle" x="639" y="-99.8" font-family="Times,serif" font-size="14.00" fill="#000000">GlobalSubService</text>
</g>
<!-- GlobalSubService&#45;&gt;AppModule -->
<g id="edge13" class="edge">
<title>GlobalSubService&#45;&gt;AppModule</title>
<path fill="none" stroke="#000000" d="M639,-122.1061C639,-141.3391 639,-169 639,-169 639,-169 1265.0997,-169 1265.0997,-169"/>
<polygon fill="#000000" stroke="#000000" points="1265.0998,-172.5001 1275.0997,-169 1265.0997,-165.5001 1265.0998,-172.5001"/>
</g>
<!-- ModuleService -->
<g id="node15" class="node">
<title>ModuleService</title>
<ellipse fill="#fdb462" stroke="#000000" cx="470" cy="-104" rx="70.0635" ry="18"/>
<text text-anchor="middle" x="470" y="-99.8" font-family="Times,serif" font-size="14.00" fill="#000000">ModuleService</text>
</g>
<!-- ModuleService&#45;&gt;AppModule -->
<g id="edge14" class="edge">
<title>ModuleService&#45;&gt;AppModule</title>
<path fill="none" stroke="#000000" d="M470,-122.0267C470,-142.7672 470,-174 470,-174 470,-174 1265.286,-174 1265.286,-174"/>
<polygon fill="#000000" stroke="#000000" points="1265.2861,-177.5001 1275.286,-174 1265.286,-170.5001 1265.2861,-177.5001"/>
</g>
<!-- MyCustomInterceptor -->
<g id="node16" class="node">
<title>MyCustomInterceptor</title>
<ellipse fill="#fdb462" stroke="#000000" cx="285" cy="-104" rx="96.71" ry="18"/>
<text text-anchor="middle" x="285" y="-99.8" font-family="Times,serif" font-size="14.00" fill="#000000">MyCustomInterceptor</text>
</g>
<!-- MyCustomInterceptor&#45;&gt;AppModule -->
<g id="edge15" class="edge">
<title>MyCustomInterceptor&#45;&gt;AppModule</title>
<path fill="none" stroke="#000000" d="M285,-122.2921C285,-144.2057 285,-178 285,-178 285,-178 1265.2662,-178 1265.2662,-178"/>
<polygon fill="#000000" stroke="#000000" points="1265.2662,-181.5001 1275.2662,-178 1265.2662,-174.5001 1265.2662,-181.5001"/>
</g>
<!-- SideNavService -->
<g id="node17" class="node">
<title>SideNavService</title>
<ellipse fill="#fdb462" stroke="#000000" cx="97" cy="-104" rx="73.492" ry="18"/>
<text text-anchor="middle" x="97" y="-99.8" font-family="Times,serif" font-size="14.00" fill="#000000">SideNavService</text>
</g>
<!-- SideNavService&#45;&gt;AppModule -->
<g id="edge16" class="edge">
<title>SideNavService&#45;&gt;AppModule</title>
<path fill="none" stroke="#000000" d="M97,-122.3228C97,-145.6602 97,-183 97,-183 97,-183 1265.0048,-183 1265.0048,-183"/>
<polygon fill="#000000" stroke="#000000" points="1265.0049,-186.5001 1275.0048,-183 1265.0048,-179.5001 1265.0049,-186.5001"/>
</g>
</g>
</svg>
