<?xml version="1.0" encoding="UTF-8" standalone="no"?>
<!DOCTYPE svg PUBLIC "-//W3C//DTD SVG 1.1//EN"
 "http://www.w3.org/Graphics/SVG/1.1/DTD/svg11.dtd">
<!-- Generated by graphviz version 2.40.1 (20161225.0304)
 -->
<!-- Title: dependencies Pages: 1 -->
<svg width="506pt" height="211pt"
 viewBox="0.00 0.00 506.00 211.00" xmlns="http://www.w3.org/2000/svg" xmlns:xlink="http://www.w3.org/1999/xlink">
<g id="graph0" class="graph" transform="scale(1 1) rotate(0) translate(4 207)">
<title>dependencies</title>
<polygon fill="#ffffff" stroke="transparent" points="-4,4 -4,-207 502,-207 502,4 -4,4"/>
<text text-anchor="start" x="228.0091" y="-42.4" font-family="sans-serif" font-weight="bold" font-size="14.00" fill="#000000">Legend</text>
<polygon fill="#ffffb3" stroke="transparent" points="15,-10 15,-30 35,-30 35,-10 15,-10"/>
<text text-anchor="start" x="38.629" y="-15.4" font-family="sans-serif" font-size="14.00" fill="#000000"> &#160;Declarations</text>
<polygon fill="#8dd3c7" stroke="transparent" points="128,-10 128,-30 148,-30 148,-10 128,-10"/>
<text text-anchor="start" x="151.7251" y="-15.4" font-family="sans-serif" font-size="14.00" fill="#000000"> &#160;Module</text>
<polygon fill="#80b1d3" stroke="transparent" points="214,-10 214,-30 234,-30 234,-10 214,-10"/>
<text text-anchor="start" x="237.7812" y="-15.4" font-family="sans-serif" font-size="14.00" fill="#000000"> &#160;Bootstrap</text>
<polygon fill="#fdb462" stroke="transparent" points="311,-10 311,-30 331,-30 331,-10 311,-10"/>
<text text-anchor="start" x="334.6732" y="-15.4" font-family="sans-serif" font-size="14.00" fill="#000000"> &#160;Providers</text>
<polygon fill="#fb8072" stroke="transparent" points="407,-10 407,-30 427,-30 427,-10 407,-10"/>
<text text-anchor="start" x="430.7258" y="-15.4" font-family="sans-serif" font-size="14.00" fill="#000000"> &#160;Exports</text>
<g id="clust1" class="cluster">
<title>cluster_ExportsModule</title>
<polygon fill="none" stroke="#000000" stroke-dasharray="1,5" points="8,-70 8,-195 490,-195 490,-70 8,-70"/>
</g>
<g id="clust2" class="cluster">
<title>cluster_ExportsModule_declarations</title>
<polygon fill="none" stroke="#000000" points="342,-78 342,-130 482,-130 482,-78 342,-78"/>
</g>
<g id="clust4" class="cluster">
<title>cluster_ExportsModule_imports</title>
<polygon fill="none" stroke="#000000" points="180,-78 180,-130 334,-130 334,-78 180,-78"/>
</g>
<g id="clust7" class="cluster">
<title>cluster_ExportsModule_providers</title>
<polygon fill="none" stroke="#000000" points="16,-78 16,-130 172,-130 172,-78 16,-78"/>
</g>
<!-- ExportsComponent -->
<g id="node1" class="node">
<title>ExportsComponent</title>
<polygon fill="#ffffb3" stroke="#000000" points="474.3809,-122 349.6191,-122 349.6191,-86 474.3809,-86 474.3809,-122"/>
<text text-anchor="middle" x="412" y="-99.8" font-family="Times,serif" font-size="14.00" fill="#000000">ExportsComponent</text>
</g>
<!-- ExportsModule -->
<g id="node2" class="node">
<title>ExportsModule</title>
<polygon fill="#8dd3c7" stroke="#000000" points="308.5982,-187 305.5982,-191 284.5982,-191 281.5982,-187 205.4018,-187 205.4018,-151 308.5982,-151 308.5982,-187"/>
<text text-anchor="middle" x="257" y="-164.8" font-family="Times,serif" font-size="14.00" fill="#000000">ExportsModule</text>
</g>
<!-- ExportsComponent&#45;&gt;ExportsModule -->
<g id="edge1" class="edge">
<title>ExportsComponent&#45;&gt;ExportsModule</title>
<path fill="none" stroke="#000000" d="M412,-122.1061C412,-141.3391 412,-169 412,-169 412,-169 318.6128,-169 318.6128,-169"/>
<polygon fill="#000000" stroke="#000000" points="318.6128,-165.5001 308.6128,-169 318.6127,-172.5001 318.6128,-165.5001"/>
</g>
<!-- GN2CommonModule -->
<g id="node3" class="node">
<title>GN2CommonModule</title>
<polygon fill="#8dd3c7" stroke="#000000" points="326.3809,-122 323.3809,-126 302.3809,-126 299.3809,-122 187.6191,-122 187.6191,-86 326.3809,-86 326.3809,-122"/>
<text text-anchor="middle" x="257" y="-99.8" font-family="Times,serif" font-size="14.00" fill="#000000">GN2CommonModule</text>
</g>
<!-- GN2CommonModule&#45;&gt;ExportsModule -->
<g id="edge2" class="edge">
<title>GN2CommonModule&#45;&gt;ExportsModule</title>
<path fill="none" stroke="#000000" d="M257,-122.1061C257,-122.1061 257,-140.991 257,-140.991"/>
<polygon fill="#000000" stroke="#000000" points="253.5001,-140.9909 257,-150.991 260.5001,-140.991 253.5001,-140.9909"/>
</g>
<!-- ExportsService -->
<g id="node4" class="node">
<title>ExportsService</title>
<ellipse fill="#fdb462" stroke="#000000" cx="94" cy="-104" rx="70.0616" ry="18"/>
<text text-anchor="middle" x="94" y="-99.8" font-family="Times,serif" font-size="14.00" fill="#000000">ExportsService</text>
</g>
<!-- ExportsService&#45;&gt;ExportsModule -->
<g id="edge3" class="edge">
<title>ExportsService&#45;&gt;ExportsModule</title>
<path fill="none" stroke="#000000" d="M94,-122.1061C94,-141.3391 94,-169 94,-169 94,-169 195.4258,-169 195.4258,-169"/>
<polygon fill="#000000" stroke="#000000" points="195.4258,-172.5001 205.4258,-169 195.4257,-165.5001 195.4258,-172.5001"/>
</g>
</g>
</svg>
